<svg width="300" height="117" viewBox="0 0 300 117" fill="none" xmlns="http://www.w3.org/2000/svg">
<path d="M90.257 56.406L98.5218 55.1446C100.386 54.8923 100.89 53.9337 100.89 52.8236C100.89 50.099 99.0257 47.9293 94.8429 47.9293C90.8114 47.9293 88.594 50.5026 88.2412 53.7318L81.2364 52.1677C81.8411 46.6174 86.8302 41.6727 94.7421 41.6727C104.62 41.6727 108.399 47.2734 108.399 53.6814V69.6762C108.399 72.6027 108.701 74.4696 108.802 74.8228H101.697C101.646 74.6209 101.394 73.309 101.394 70.7358C99.8824 73.1577 96.7075 75.8319 91.5169 75.8319C84.8144 75.8319 80.6316 71.1899 80.6316 66.1442C80.5308 60.3417 84.764 57.2134 90.257 56.406ZM100.84 61.5022V60.0389L92.4744 61.3003C90.1058 61.704 88.1908 63.0159 88.1908 65.6396C88.1908 67.8093 89.8539 69.7771 92.8775 69.7771C97.1611 69.8275 100.84 67.7588 100.84 61.5022Z" fill="#03B614"/>
<path d="M118.629 74.7723C119.184 78.7079 122.258 81.6849 126.692 81.6849C132.74 81.6849 135.814 78.5565 135.814 72.0476V68.667C134.453 71.1899 131.178 73.3595 126.541 73.3595C117.974 73.3595 111.675 66.7497 111.675 57.7179C111.675 49.1403 117.672 42.0763 126.541 42.0763C131.53 42.0763 134.655 44.1451 136.015 46.7688V42.6818H143.423V71.7953C143.423 80.373 138.989 88.3956 126.944 88.3956C118.428 88.3956 112.481 83.0976 111.624 76.6392L118.629 74.7723ZM136.015 57.7179C136.015 52.2181 132.538 48.6862 127.751 48.6862C122.862 48.6862 119.385 52.2686 119.385 57.7179C119.385 63.3186 122.762 66.8506 127.751 66.8506C132.639 66.8506 136.015 63.2682 136.015 57.7179Z" fill="#03B614"/>
<path d="M167.865 50.2503C167.008 50.099 166.152 50.0485 165.345 50.0485C159.399 50.0485 156.728 53.4796 156.728 59.4839V74.8228H149.068V42.6818H156.526V47.8284C158.038 44.3469 161.616 42.2782 165.849 42.2782C166.756 42.2782 167.563 42.4295 167.915 42.48V50.2503H167.865Z" fill="#03B614"/>
<path d="M201.579 58.7271C201.579 68.6166 194.524 75.8319 184.898 75.8319C175.323 75.8319 168.268 68.6166 168.268 58.7271C168.268 48.888 175.323 41.6727 184.898 41.6727C194.524 41.6727 201.579 48.888 201.579 58.7271ZM193.869 58.7271C193.869 52.0668 189.635 48.6357 184.898 48.6357C180.212 48.6357 175.928 52.0668 175.928 58.7271C175.928 65.3873 180.212 68.9698 184.898 68.9698C189.635 68.9698 193.869 65.4378 193.869 58.7271Z" fill="#03B614"/>
<path d="M213.119 56.406L221.384 55.1446C223.249 54.8923 223.753 53.9337 223.753 52.8236C223.753 50.099 221.888 47.9293 217.705 47.9293C213.674 47.9293 211.456 50.5026 211.104 53.7318L204.099 52.1677C204.704 46.6174 209.693 41.6727 217.605 41.6727C227.482 41.6727 231.262 47.2734 231.262 53.6814V69.6762C231.262 72.6027 231.614 74.4696 231.665 74.8228H224.559C224.509 74.6209 224.206 73.309 224.206 70.7358C222.694 73.1577 219.52 75.8319 214.329 75.8319C207.576 75.8319 203.444 71.1899 203.444 66.1442C203.393 60.3417 207.626 57.2134 213.119 56.406ZM223.702 61.5022V60.0389L215.337 61.3003C212.968 61.704 211.053 63.0159 211.053 65.6396C211.053 67.8093 212.716 69.7771 215.74 69.7771C220.024 69.8275 223.702 67.7588 223.702 61.5022Z" fill="#03B614"/>
<path d="M266.689 68.9698C266.689 71.8963 266.941 74.3182 267.042 74.8228H259.735C259.583 74.1164 259.432 71.9972 259.432 70.6853C257.92 73.41 254.544 75.6301 250.008 75.6301C240.786 75.6301 234.588 68.3643 234.588 58.6766C234.588 49.443 240.837 41.8241 249.908 41.8241C255.501 41.8241 258.374 44.3973 259.331 46.4661V26.9898H266.79V68.9698H266.689ZM250.815 68.8689C255.804 68.8689 259.331 64.7314 259.331 58.5757C259.331 52.42 255.905 48.5853 250.865 48.5853C245.826 48.5853 242.147 52.4704 242.147 58.6261C242.147 64.7819 245.574 68.8689 250.815 68.8689Z" fill="#03B614"/>
<path d="M277.07 64.2773C277.322 67.1533 279.489 69.7771 283.622 69.7771C286.797 69.7771 288.409 68.0615 288.409 66.0937C288.409 64.3782 287.2 63.0663 284.63 62.5113L279.892 61.4517C274.198 60.1903 271.275 56.507 271.275 52.0668C271.275 46.4661 276.415 41.6727 283.067 41.6727C292.038 41.6727 294.96 47.4752 295.464 50.654L289.014 52.5209C288.762 50.654 287.351 47.677 283.067 47.677C280.346 47.677 278.431 49.3926 278.431 51.3604C278.431 53.0759 279.691 54.3373 281.656 54.741L286.545 55.7501C292.592 57.062 295.767 60.7453 295.767 65.5387C295.767 70.433 291.836 75.8319 283.622 75.8319C274.299 75.8319 270.771 69.7771 270.368 66.1442L277.07 64.2773Z" fill="#03B614"/>
<path d="M38.9552 51.7136C40.8198 49.8467 43.2891 48.8375 45.8592 48.8375C48.4798 48.8375 51.0499 49.7962 52.9145 51.6631C54.7791 53.53 55.787 56.0024 55.787 58.6261C55.787 61.2499 54.7791 63.7223 52.9145 65.5892C51.0499 67.4561 48.5805 68.4652 45.96 68.4652C43.3395 68.4652 40.8702 67.4561 39.0055 65.5892L32.0511 58.6261L38.9552 51.7136ZM47.3207 81.8867C46.7663 81.9371 46.212 81.9371 45.708 81.9371C42.6844 81.9371 40.0638 81.2307 37.9977 80.4234L29.5313 88.8497C27.6667 90.7166 25.1974 91.7257 22.6272 91.7257C20.0067 91.7257 17.5374 90.7166 15.6728 88.8497C11.8428 85.015 11.8428 78.8088 15.6728 74.9741L26.7092 63.9746L33.6637 70.9376C36.9394 74.2173 41.3237 76.0337 46.0104 76.0337C50.6467 76.0337 55.0311 74.2173 58.3571 70.9376C61.6328 67.6579 63.447 63.2682 63.447 58.5757C63.447 53.9337 61.6328 49.5439 58.3571 46.2138L35.3267 23.2055C32.0511 19.9258 27.6667 18.1094 22.98 18.1094C18.3437 18.1094 13.9593 19.9258 10.6333 23.2055C7.35764 26.4852 5.54342 30.8749 5.54342 35.5674C5.54342 40.2094 7.35764 44.5992 10.6333 47.9293L17.3358 54.5896L22.6272 49.2916L16.0759 42.5304C14.2113 40.6636 13.2034 38.1912 13.2034 35.6179C13.2034 32.9941 14.2113 30.5217 16.0759 28.6548C17.8901 26.7375 20.3595 25.7284 22.98 25.7284C25.6005 25.7284 28.0699 26.7375 29.9345 28.6044L42.7852 41.4709C39.3079 42.0763 36.133 43.7414 33.5629 46.3147L26.7092 53.1768L21.317 58.5757L10.2805 69.5752C3.52763 76.3869 3.52763 87.4874 10.3309 94.299C13.6066 97.5787 17.9909 99.3952 22.6272 99.3952C27.2636 99.3952 31.6479 97.5787 34.9236 94.299L47.3207 81.8867Z" fill="#03B614"/>
</svg>
