<svg width="300" height="117" viewBox="0 0 300 117" fill="none" xmlns="http://www.w3.org/2000/svg">
<path d="M38.9552 51.7136C40.8198 49.8467 43.2891 48.8375 45.8592 48.8375C48.4798 48.8375 51.0499 49.7962 52.9145 51.6631C54.7791 53.53 55.787 56.0024 55.787 58.6261C55.787 61.2499 54.7791 63.7223 52.9145 65.5892C51.0499 67.4561 48.5805 68.4652 45.96 68.4652C43.3395 68.4652 40.8702 67.4561 39.0055 65.5892L32.0511 58.6261L38.9552 51.7136ZM47.3207 81.8867C46.7663 81.9371 46.212 81.9371 45.708 81.9371C42.6844 81.9371 40.0638 81.2307 37.9977 80.4234L29.5313 88.8497C27.6667 90.7166 25.1974 91.7257 22.6272 91.7257C20.0067 91.7257 17.5374 90.7166 15.6728 88.8497C11.8428 85.015 11.8428 78.8088 15.6728 74.9741L26.7092 63.9746L33.6637 70.9376C36.9394 74.2173 41.3237 76.0337 46.0104 76.0337C50.6467 76.0337 55.0311 74.2173 58.3571 70.9376C61.6328 67.6579 63.447 63.2682 63.447 58.5757C63.447 53.9337 61.6328 49.5439 58.3571 46.2138L35.3267 23.2055C32.0511 19.9258 27.6667 18.1094 22.98 18.1094C18.3437 18.1094 13.9593 19.9258 10.6333 23.2055C7.35764 26.4852 5.54342 30.8749 5.54342 35.5674C5.54342 40.2094 7.35764 44.5992 10.6333 47.9293L17.3358 54.5896L22.6272 49.2916L16.0759 42.5304C14.2113 40.6636 13.2034 38.1912 13.2034 35.6179C13.2034 32.9941 14.2113 30.5217 16.0759 28.6548C17.8901 26.7375 20.3595 25.7284 22.98 25.7284C25.6005 25.7284 28.0699 26.7375 29.9345 28.6044L42.7852 41.4709C39.3079 42.0763 36.133 43.7414 33.5629 46.3147L26.7092 53.1768L21.317 58.5757L10.2805 69.5752C3.52763 76.3869 3.52763 87.4874 10.3309 94.299C13.6066 97.5787 17.9909 99.3952 22.6272 99.3952C27.2636 99.3952 31.6479 97.5787 34.9236 94.299L47.3207 81.8867Z" fill="#03B614"/>
<path d="M83.3125 76V41.7344H90.5781V76H83.3125Z" fill="#03B614"/>
<path d="M103.097 76.4688C100.176 76.4688 97.7928 75.3281 95.9491 73.0469C94.1209 70.75 93.2069 67.3828 93.2069 62.9453C93.2069 58.4609 94.1366 55.0703 95.9959 52.7734C97.8553 50.4609 100.285 49.3047 103.285 49.3047C104.535 49.3047 105.637 49.4766 106.59 49.8203C107.543 50.1641 108.363 50.625 109.051 51.2031C109.754 51.7812 110.347 52.4297 110.832 53.1484H111.066C110.972 52.6484 110.855 51.9141 110.715 50.9453C110.59 49.9609 110.527 48.9531 110.527 47.9219V39.5312H117.699V76H112.215L110.832 72.6016H110.527C110.074 73.3203 109.504 73.9766 108.816 74.5703C108.144 75.1484 107.34 75.6094 106.402 75.9531C105.465 76.2969 104.363 76.4688 103.097 76.4688ZM105.605 70.7734C107.558 70.7734 108.933 70.1953 109.73 69.0391C110.543 67.8672 110.972 66.1094 111.019 63.7656V62.9922C111.019 60.4453 110.629 58.5 109.847 57.1562C109.066 55.7969 107.613 55.1172 105.488 55.1172C103.91 55.1172 102.676 55.7969 101.785 57.1562C100.894 58.5156 100.449 60.4766 100.449 63.0391C100.449 65.6016 100.894 67.5312 101.785 68.8281C102.691 70.125 103.965 70.7734 105.605 70.7734Z" fill="#03B614"/>
<path d="M134.906 56.7578H148.5V74.5234C146.703 75.1172 144.836 75.5938 142.898 75.9531C140.961 76.2969 138.765 76.4688 136.312 76.4688C132.906 76.4688 130.015 75.7969 127.64 74.4531C125.265 73.1094 123.461 71.125 122.226 68.5C120.992 65.875 120.375 62.6484 120.375 58.8203C120.375 55.2266 121.062 52.1172 122.437 49.4922C123.828 46.8672 125.851 44.8359 128.507 43.3984C131.179 41.9609 134.437 41.2422 138.281 41.2422C140.093 41.2422 141.882 41.4375 143.648 41.8281C145.414 42.2188 147.015 42.7266 148.453 43.3516L146.039 49.1641C144.992 48.6328 143.797 48.1875 142.453 47.8281C141.109 47.4688 139.703 47.2891 138.234 47.2891C136.125 47.2891 134.289 47.7734 132.726 48.7422C131.179 49.7109 129.976 51.0703 129.117 52.8203C128.273 54.5547 127.851 56.6016 127.851 58.9609C127.851 61.1953 128.156 63.1797 128.765 64.9141C129.375 66.6328 130.336 67.9844 131.648 68.9688C132.961 69.9375 134.672 70.4219 136.781 70.4219C137.812 70.4219 138.679 70.375 139.382 70.2812C140.101 70.1719 140.773 70.0625 141.398 69.9531V62.8047H134.906V56.7578Z" fill="#03B614"/>
<path d="M175.39 55.1641H169.202V76H162.054V55.1641H158.117V51.7188L162.054 49.7969V47.875C162.054 45.6406 162.429 43.9062 163.179 42.6719C163.945 41.4219 165.015 40.5469 166.39 40.0469C167.781 39.5312 169.421 39.2734 171.312 39.2734C172.702 39.2734 173.968 39.3906 175.109 39.625C176.249 39.8438 177.179 40.0938 177.898 40.375L176.07 45.625C175.523 45.4531 174.929 45.2969 174.288 45.1562C173.648 45.0156 172.913 44.9453 172.085 44.9453C171.085 44.9453 170.351 45.25 169.882 45.8594C169.429 46.4531 169.202 47.2188 169.202 48.1562V49.7969H175.39V55.1641Z" fill="#03B614"/>
<path d="M186.409 49.2578C189.925 49.2578 192.62 50.0234 194.495 51.5547C196.37 53.0859 197.308 55.4141 197.308 58.5391V76H192.316L190.933 72.4375H190.745C189.995 73.375 189.23 74.1406 188.448 74.7344C187.667 75.3281 186.769 75.7656 185.753 76.0469C184.738 76.3281 183.503 76.4688 182.05 76.4688C180.503 76.4688 179.113 76.1719 177.878 75.5781C176.659 74.9844 175.698 74.0781 174.995 72.8594C174.292 71.625 173.941 70.0625 173.941 68.1719C173.941 65.3906 174.917 63.3438 176.87 62.0312C178.823 60.7031 181.753 59.9688 185.659 59.8281L190.206 59.6875V58.5391C190.206 57.1641 189.847 56.1562 189.128 55.5156C188.409 54.875 187.409 54.5547 186.128 54.5547C184.863 54.5547 183.62 54.7344 182.402 55.0938C181.183 55.4531 179.964 55.9062 178.745 56.4531L176.378 51.625C177.769 50.8906 179.323 50.3125 181.042 49.8906C182.777 49.4688 184.566 49.2578 186.409 49.2578ZM190.206 63.8594L187.441 63.9531C185.128 64.0156 183.519 64.4297 182.613 65.1953C181.722 65.9609 181.277 66.9688 181.277 68.2188C181.277 69.3125 181.597 70.0938 182.238 70.5625C182.878 71.0156 183.714 71.2422 184.745 71.2422C186.277 71.2422 187.566 70.7891 188.613 69.8828C189.675 68.9766 190.206 67.6875 190.206 66.0156V63.8594Z" fill="#03B614"/>
<path d="M215.476 49.3047C215.835 49.3047 216.249 49.3281 216.718 49.375C217.202 49.4062 217.593 49.4531 217.89 49.5156L217.351 56.2188C217.116 56.1406 216.78 56.0859 216.343 56.0547C215.921 56.0078 215.554 55.9844 215.241 55.9844C214.319 55.9844 213.421 56.1016 212.546 56.3359C211.687 56.5703 210.913 56.9531 210.226 57.4844C209.538 58 208.991 58.6875 208.585 59.5469C208.194 60.3906 207.999 61.4297 207.999 62.6641V76H200.851V49.7969H206.265L207.319 54.2031H207.671C208.187 53.3125 208.827 52.5 209.593 51.7656C210.374 51.0156 211.257 50.4219 212.241 49.9844C213.241 49.5312 214.319 49.3047 215.476 49.3047Z" fill="#03B614"/>
<path d="M249.581 49.3047C252.55 49.3047 254.792 50.0703 256.307 51.6016C257.839 53.1172 258.604 55.5547 258.604 58.9141V76H251.432V60.6953C251.432 58.8203 251.112 57.4062 250.472 56.4531C249.831 55.5 248.839 55.0234 247.495 55.0234C245.604 55.0234 244.261 55.7031 243.464 57.0625C242.667 58.4062 242.268 60.3359 242.268 62.8516V76H235.12V60.6953C235.12 59.4453 234.979 58.3984 234.698 57.5547C234.417 56.7109 233.987 56.0781 233.409 55.6562C232.831 55.2344 232.089 55.0234 231.182 55.0234C229.854 55.0234 228.807 55.3594 228.042 56.0312C227.292 56.6875 226.753 57.6641 226.425 58.9609C226.112 60.2422 225.956 61.8125 225.956 63.6719V76H218.807V49.7969H224.268L225.229 53.1484H225.628C226.159 52.2422 226.823 51.5078 227.62 50.9453C228.432 50.3828 229.323 49.9688 230.292 49.7031C231.261 49.4375 232.245 49.3047 233.245 49.3047C235.167 49.3047 236.792 49.6172 238.12 50.2422C239.464 50.8672 240.495 51.8359 241.214 53.1484H241.847C242.628 51.8047 243.729 50.8281 245.151 50.2188C246.589 49.6094 248.065 49.3047 249.581 49.3047Z" fill="#03B614"/>
<path d="M280.405 68.2188C280.405 70 279.983 71.5078 279.139 72.7422C278.311 73.9609 277.069 74.8906 275.413 75.5312C273.757 76.1562 271.694 76.4688 269.225 76.4688C267.397 76.4688 265.827 76.3516 264.514 76.1172C263.217 75.8828 261.905 75.4922 260.577 74.9453V69.0391C261.999 69.6797 263.522 70.2109 265.147 70.6328C266.788 71.0391 268.225 71.2422 269.46 71.2422C270.85 71.2422 271.842 71.0391 272.436 70.6328C273.046 70.2109 273.35 69.6641 273.35 68.9922C273.35 68.5547 273.225 68.1641 272.975 67.8203C272.741 67.4609 272.225 67.0625 271.428 66.625C270.632 66.1719 269.382 65.5859 267.678 64.8672C266.038 64.1797 264.686 63.4844 263.624 62.7812C262.577 62.0781 261.796 61.25 261.28 60.2969C260.78 59.3281 260.53 58.1016 260.53 56.6172C260.53 54.1953 261.467 52.375 263.342 51.1562C265.233 49.9219 267.757 49.3047 270.913 49.3047C272.538 49.3047 274.085 49.4688 275.553 49.7969C277.038 50.125 278.561 50.6484 280.124 51.3672L277.967 56.5234C276.671 55.9609 275.444 55.5 274.288 55.1406C273.147 54.7812 271.983 54.6016 270.796 54.6016C269.749 54.6016 268.96 54.7422 268.428 55.0234C267.897 55.3047 267.632 55.7344 267.632 56.3125C267.632 56.7344 267.764 57.1094 268.03 57.4375C268.311 57.7656 268.842 58.1328 269.624 58.5391C270.421 58.9297 271.585 59.4375 273.116 60.0625C274.6 60.6719 275.889 61.3125 276.983 61.9844C278.077 62.6406 278.921 63.4609 279.514 64.4453C280.108 65.4141 280.405 66.6719 280.405 68.2188Z" fill="#03B614"/>
</svg>
